<svg xmlns="http://www.w3.org/2000/svg" width="127" height="84" fill="none"><path fill="#5D5FEF" d="M9.462 36.818H1.607V47h1.531v-8.87h4.793V47h1.53V36.818Zm5.52 10.336c1.666 0 2.845-.82 3.183-2.063l-1.407-.254c-.269.721-.915 1.09-1.76 1.09-1.273 0-2.128-.826-2.168-2.298h5.43v-.527c0-2.759-1.651-3.838-3.382-3.838-2.127 0-3.53 1.62-3.53 3.967 0 2.372 1.383 3.923 3.635 3.923Zm-2.147-4.638c.06-1.084.845-2.024 2.053-2.024 1.154 0 1.91.855 1.914 2.024h-3.967Zm7.073 7.348h1.487v-4.052h.09c.268.487.815 1.337 2.207 1.337 1.85 0 3.192-1.481 3.192-3.952 0-2.476-1.363-3.933-3.207-3.933-1.417 0-1.929.865-2.192 1.338h-.125v-1.238H19.91v10.5Zm1.457-6.682c0-1.596.696-2.655 1.994-2.655 1.347 0 2.023 1.139 2.023 2.655 0 1.531-.696 2.7-2.023 2.7-1.278 0-1.994-1.094-1.994-2.7Zm10.475 3.972c1.666 0 2.844-.82 3.182-2.063l-1.407-.254c-.268.721-.915 1.09-1.76 1.09-1.273 0-2.128-.826-2.167-2.298h5.429v-.527c0-2.759-1.651-3.838-3.381-3.838-2.128 0-3.53 1.62-3.53 3.967 0 2.372 1.382 3.923 3.634 3.923Zm-2.147-4.638c.06-1.084.845-2.024 2.053-2.024 1.153 0 1.909.855 1.914 2.024h-3.967Zm6.4-1.87h2.5V47h1.452v-6.354h2.49v-1.282h-6.443v1.282Zm9.881 6.523c1.263 0 1.974-.641 2.258-1.213h.06V47h1.451v-5.071c0-2.222-1.75-2.665-2.963-2.665-1.382 0-2.655.557-3.152 1.95l1.397.317c.219-.542.776-1.064 1.775-1.064.96 0 1.452.502 1.452 1.367v.035c0 .542-.557.532-1.93.691-1.446.17-2.928.547-2.928 2.282 0 1.502 1.129 2.327 2.58 2.327Zm.324-1.193c-.84 0-1.447-.378-1.447-1.114 0-.795.706-1.079 1.566-1.193.482-.065 1.626-.194 1.84-.408v.985c0 .905-.721 1.73-1.96 1.73Zm16.367-.259h-1.292v-6.353h-1.457v6.348h-2.64v-6.348H55.82v6.348h-2.64v-6.348h-1.456V47h9.346v2.188h1.457l.14-3.47Zm3.024-.8v-5.553h-1.456V47h1.615l3.351-5.558V47h1.457v-7.636h-1.6l-3.367 5.553Zm6.019-4.27h2.5V47h1.452v-6.354h2.49v-1.282h-6.443v1.282Zm10.95 6.507c1.666 0 2.844-.82 3.183-2.063l-1.407-.254c-.269.721-.915 1.09-1.76 1.09-1.273 0-2.128-.826-2.168-2.298h5.429v-.527c0-2.759-1.65-3.838-3.38-3.838-2.129 0-3.53 1.62-3.53 3.967 0 2.372 1.381 3.923 3.634 3.923Zm-2.147-4.638c.06-1.084.845-2.024 2.053-2.024 1.154 0 1.91.855 1.914 2.024h-3.967Zm13.995 4.638c1.805 0 2.973-1.084 3.137-2.57h-1.447c-.189.825-.83 1.312-1.68 1.312-1.258 0-2.068-1.049-2.068-2.714 0-1.636.825-2.665 2.068-2.665.944 0 1.521.597 1.68 1.313h1.447c-.16-1.542-1.417-2.566-3.152-2.566-2.153 0-3.545 1.62-3.545 3.953 0 2.302 1.343 3.937 3.56 3.937Zm5.706-7.79h-1.486V47h1.486v-3.112h1.7c.244 1.974 1.571 3.266 3.49 3.266 2.138 0 3.535-1.596 3.535-3.942 0-2.367-1.397-3.948-3.535-3.948-1.943 0-3.271 1.313-3.495 3.331h-1.695v-3.231Zm5.19 6.517c-1.436 0-2.078-1.213-2.078-2.67 0-1.461.642-2.684 2.078-2.684 1.442 0 2.079 1.228 2.079 2.685 0 1.451-.637 2.67-2.079 2.67Zm4.542 3.321h1.472V47h5.324v2.202h1.452v-3.49h-1.173v-6.348h-5.191l-.238 2.848c-.16 1.924-.393 2.929-1.025 3.5h-.621v3.49Zm2.212-3.49c.507-.71.696-1.894.846-3.5l.159-1.576h2.406v5.076h-3.411Zm9.711 1.457c1.263 0 1.974-.641 2.257-1.213h.06V47h1.452v-5.071c0-2.222-1.75-2.665-2.964-2.665-1.382 0-2.654.557-3.151 1.95l1.397.317c.218-.542.775-1.064 1.774-1.064.96 0 1.452.502 1.452 1.367v.035c0 .542-.557.532-1.929.691-1.447.17-2.928.547-2.928 2.282 0 1.502 1.128 2.327 2.58 2.327Zm.323-1.193c-.84 0-1.446-.378-1.446-1.114 0-.795.705-1.079 1.566-1.193.482-.065 1.625-.194 1.839-.408v.985c0 .905-.721 1.73-1.959 1.73Z"/><path fill="#6B7280" d="M17.831 66h.341c1.449 0 1.866-1.125 1.96-3.273l.103-2.335h2.403V66h1.006v-6.545H19.28l-.12 2.897c-.084 2.2-.306 2.71-1.09 2.71h-.239V66Zm8.186-6.545h-1.005V66h1.005v-2.744h1.68c.178 1.751 1.316 2.88 2.94 2.88 1.772 0 2.965-1.346 2.965-3.375 0-2.045-1.193-3.392-2.965-3.392-1.641 0-2.787 1.155-2.945 2.95h-1.675v-2.864Zm4.62 5.778c-1.347 0-1.96-1.16-1.96-2.472s.613-2.488 1.96-2.488c1.346 0 1.96 1.176 1.96 2.488 0 1.313-.614 2.472-1.96 2.472ZM40.097 57c-.32.269-.797.269-1.466.264-.218 0-.456 0-.716.009-1.994.05-2.983 1.568-2.983 4.483v.699c0 2.42 1.176 3.681 2.932 3.681 1.751 0 2.915-1.27 2.915-3.323 0-2.063-1.18-3.154-2.71-3.154-.9 0-1.74.375-2.183 1.193h-.085c.137-1.687.767-2.59 2.131-2.642 1.21-.05 2.08-.017 2.676-.596L40.097 57Zm-2.233 8.233c-1.193 0-1.926-.955-1.926-2.42.021-1.432.741-2.25 1.909-2.25 1.197 0 1.926.818 1.926 2.25 0 1.474-.725 2.42-1.91 2.42Zm7.112.903c1.773 0 2.966-1.346 2.966-3.375 0-2.045-1.193-3.392-2.966-3.392-1.773 0-2.966 1.347-2.966 3.392 0 2.029 1.193 3.375 2.966 3.375Zm0-.903c-1.347 0-1.96-1.16-1.96-2.472s.613-2.488 1.96-2.488 1.96 1.176 1.96 2.488c0 1.313-.613 2.472-1.96 2.472Zm5.507-.716v-5.062h-1.006V66h1.176l3.137-5.063V66h1.005v-6.545h-1.159l-3.153 5.062Zm2.488-7.244c0 .443-.238.835-.835.835-.596 0-.818-.392-.818-.835h-.938c0 .92.682 1.568 1.756 1.568 1.091 0 1.773-.648 1.773-1.568h-.938Zm9.206 3.034c1.023.008 1.632.946 1.764 1.926h-2.429v.938h2.438c-.107.997-.738 2.002-1.773 2.01-.767-.008-1.483-.672-1.483-1.414h-.989c0 1.304 1.04 2.352 2.472 2.352 1.79 0 2.795-1.521 2.795-3.255v-.239c0-1.734-1.005-3.256-2.795-3.256-1.278 0-2.472 1.049-2.472 2.182h.99c0-.677.8-1.236 1.482-1.244ZM65.925 66h.34c1.45 0 1.867-1.125 1.961-3.273l.102-2.335h2.404V66h1.005v-6.545h-4.363l-.12 2.897c-.085 2.2-.306 2.71-1.09 2.71h-.24V66Zm10.402.136c1.33 0 2.301-.664 2.608-1.653l-.972-.273c-.255.682-.848 1.023-1.636 1.023-1.18 0-1.994-.763-2.041-2.165h4.751v-.426c0-2.438-1.449-3.273-2.812-3.273-1.773 0-2.95 1.398-2.95 3.41 0 2.01 1.16 3.357 3.052 3.357ZM74.286 62.2c.068-1.019.788-1.926 1.939-1.926 1.09 0 1.79.818 1.79 1.926h-3.73Zm9.86 2.437-2.25-5.181h-1.33V66h1.007v-5.1l2.164 5.1h.819l2.164-5.007V66h1.006v-6.545h-1.295l-2.284 5.181Zm8.165 1.5c1.33 0 2.301-.664 2.608-1.653l-.971-.273c-.256.682-.848 1.023-1.637 1.023-1.18 0-1.994-.763-2.04-2.165h4.75v-.426c0-2.438-1.448-3.273-2.812-3.273-1.773 0-2.949 1.398-2.949 3.41 0 2.01 1.16 3.357 3.051 3.357Zm-2.04-3.937c.067-1.019.787-1.926 1.938-1.926 1.09 0 1.79.818 1.79 1.926H90.27Zm7.286-2.744h-1.006V66h1.006v-2.795h3.136V66h1.006v-6.545h-1.006v2.812h-3.136v-2.813Zm5.088.937h2.165V66h1.006v-5.608h2.147v-.938h-5.318v.938ZM16.469 79.517v-5.063h-1.006V81h1.177l3.136-5.063V81h1.006v-6.546h-1.16l-3.153 5.063Zm5.745-.188c.035 1.074 1.062 1.807 2.455 1.807 1.432 0 2.472-.767 2.472-1.96 0-.818-.49-1.483-1.228-1.534v-.068c.622-.192 1.091-.644 1.091-1.38 0-1.036-.886-1.825-2.267-1.825-1.363 0-2.335.75-2.37 1.807h1.058c.03-.541.596-.92 1.363-.92.763 0 1.194.388 1.194.971 0 .546-.375.955-1.177.955H23.68v.903h1.125c.802 0 1.313.44 1.313 1.091 0 .746-.66 1.057-1.466 1.057-.788 0-1.317-.311-1.364-.904h-1.073ZM31.35 81h.34c1.45 0 1.867-1.125 1.96-3.273l.103-2.335h2.404V81h1.005v-6.546h-4.363l-.12 2.898c-.085 2.2-.307 2.71-1.09 2.71h-.24V81Zm10.402.136c1.33 0 2.3-.664 2.608-1.653l-.972-.273c-.256.682-.848 1.023-1.636 1.023-1.18 0-1.995-.763-2.041-2.165h4.75v-.426c0-2.438-1.448-3.273-2.812-3.273-1.772 0-2.948 1.398-2.948 3.41 0 2.01 1.159 3.357 3.05 3.357ZM39.71 77.2c.068-1.019.788-1.926 1.938-1.926 1.091 0 1.79.818 1.79 1.926H39.71ZM45.99 81h3.086c1.33 0 2.13-.75 2.13-1.756 0-1.027-.78-1.58-1.5-1.687.738-.154 1.262-.567 1.262-1.364 0-1.044-.895-1.739-2.301-1.739H45.99V81Zm.955-.92v-2.012h2.131c.69 0 1.108.413 1.108 1.091 0 .571-.418.92-1.108.92h-2.13Zm0-2.881v-1.824h1.722c.805 0 1.295.337 1.295.886 0 .584-.49.938-1.295.938h-1.722Zm8.443 3.937c1.773 0 2.966-1.346 2.966-3.375 0-2.045-1.193-3.392-2.966-3.392-1.773 0-2.966 1.347-2.966 3.392 0 2.029 1.193 3.375 2.966 3.375Zm0-.903c-1.346 0-1.96-1.16-1.96-2.472s.614-2.488 1.96-2.488c1.347 0 1.96 1.176 1.96 2.488 0 1.313-.613 2.472-1.96 2.472Zm5.507-.716v-5.063h-1.006V81h1.176l3.137-5.063V81h1.005v-6.546h-1.159l-3.153 5.063Zm2.488-7.244c0 .443-.238.835-.835.835-.596 0-.818-.392-.818-.835h-.937c0 .92.681 1.568 1.755 1.568 1.091 0 1.773-.648 1.773-1.568h-.938ZM70.424 81h1.006v-5.608h3.136V81h1.006v-6.546h-5.148V81Zm8.91.153c1.143 0 1.74-.613 1.944-1.04h.051V81h1.006v-4.313c0-2.079-1.585-2.318-2.42-2.318-.99 0-2.114.341-2.626 1.534l.955.341c.222-.477.746-.988 1.704-.988.925 0 1.381.49 1.381 1.33v.033c0 .486-.494.444-1.687.597-1.215.158-2.54.426-2.54 1.926 0 1.279.989 2.011 2.233 2.011Zm.154-.903c-.8 0-1.38-.358-1.38-1.057 0-.767.698-1.005 1.483-1.108.426-.05 1.568-.17 1.738-.375v.92c0 .819-.647 1.62-1.84 1.62Zm5.688-5.796h-1.005V81h1.005v-2.796h3.136V81h1.006v-6.546h-1.005v2.813h-3.137v-2.813Zm8.723 6.682c1.33 0 2.301-.664 2.608-1.653l-.972-.273c-.255.682-.847 1.023-1.636 1.023-1.18 0-1.994-.763-2.041-2.165h4.751v-.426c0-2.438-1.448-3.273-2.812-3.273-1.773 0-2.949 1.398-2.949 3.41 0 2.01 1.16 3.357 3.051 3.357ZM91.858 77.2c.068-1.019.788-1.926 1.939-1.926 1.09 0 1.79.818 1.79 1.926h-3.729ZM97.56 81h.34c1.45 0 1.867-1.125 1.96-3.273l.103-2.335h2.403V81h1.006v-6.546h-4.364l-.119 2.898c-.085 2.2-.307 2.71-1.09 2.71h-.24V81Zm8.663-1.483v-5.063h-1.006V81h1.176l3.137-5.063V81h1.006v-6.546h-1.16l-3.153 5.063Z"/><path stroke="#000" stroke-linecap="round" stroke-width="2" d="M70.778 1v4.444M73 3.222h-4.444M64.389 3.222H57a4 4 0 0 0-4 4v9.056M70.778 9.61V17a4 4 0 0 1-4 4H57a4 4 0 0 1-4-4v-.722m0 0 3.838-3.838a4 4 0 0 1 5.657 0l4.394 4.393"/><path stroke="#000" stroke-linecap="round" stroke-width="2" d="m70.778 14.611-.505-.505a4 4 0 0 0-5.657 0l-.227.227"/><circle cx="64.111" cy="7.667" r=".556" fill="#000"/></svg>